<svg height="512" viewBox="0 0 64 64" width="512" xmlns="http://www.w3.org/2000/svg"><g id="flat"><circle cx="32" cy="32" fill="#6caade" r="29"/><path d="m17 38.673v-7.673a2 2 0 0 1 4 0v6z" fill="#d3843d"/><path d="m47 38.673v-7.673a2 2 0 0 0 -4 0v6z" fill="#d3843d"/><circle cx="32" cy="22" fill="#f4f4e6" r="11"/><path d="m38 20h-4v-4h-4v4h-4v4h4v4h4v-4h4z" fill="#e33e5c"/><g fill="#2d75bb"><path d="m10.88 20.476-1.76-.952a25.941 25.941 0 0 1 22.88-13.524v2a23.941 23.941 0 0 0 -21.12 12.476z"/><path d="m32 58v-2a23.818 23.818 0 0 0 19.2-9.6l1.6 1.2a25.805 25.805 0 0 1 -20.8 10.4z"/><path d="m28 56h2v2h-2z"/><circle cx="15" cy="22" r="2"/><circle cx="49" cy="18" r="3"/></g><path d="m30 47v-2a4.933 4.933 0 0 0 -2-4l-6-5a2.715 2.715 0 0 0 -4 0l-1 1-4-4v-4.893a2.075 2.075 0 0 0 -1.664-2.08 2 2 0 0 0 -2.336 1.973v6l4 9 8 4v4h9z" fill="#ffd782"/><path d="m34 47v-2a4.933 4.933 0 0 1 2-4l6-5a2.715 2.715 0 0 1 4 0l1 1 4-4v-4.893a2.075 2.075 0 0 1 1.664-2.08 2 2 0 0 1 2.336 1.973v6l-4 9-8 4v4h-9z" fill="#ffd782"/><rect fill="#d3843d" height="7.071" rx="1" transform="matrix(.707 -.707 .707 .707 -22.926 25.065)" width="2" x="17.793" y="36.672"/><path d="m13 30a2 2 0 0 1 4 0v7l-4-4z" fill="#f9bb4b"/><rect fill="#d3843d" height="2" rx="1" transform="matrix(.707 -.707 .707 .707 -15.018 44.157)" width="7.071" x="42.257" y="39.207"/><path d="m51 30a2 2 0 0 0 -4 0v7l4-4z" fill="#f9bb4b"/></g></svg>